<svg xmlns="http://www.w3.org/2000/svg" viewBox="0 0 400 200">

  <path d="M200 20 L350 160 A150 150 0 0 1 50 160 Z" 
        fill="#FFF8DC" 
        stroke="#8B4513" 
        stroke-width="4"/>

  <path d="M200 20 L350 160 A150 150 0 0 1 50 160 Z" 
        fill="none" 
        stroke="#A0522D" 
        stroke-width="10"/>

  <circle cx="200" cy="80" r="15" fill="#B22222"/>
  <circle cx="240" cy="100" r="12" fill="#B22222"/>
  <circle cx="160" cy="100" r="14" fill="#B22222"/>
  <circle cx="200" cy="120" r="13" fill="#B22222"/>

  <circle cx="180" cy="90" r="10" fill="#FFFFF0"/>
  <circle cx="220" cy="110" r="10" fill="#FFFFF0"/>
  <circle cx="190" cy="140" r="10" fill="#FFFFF0"/>
  
  <path d="M170 70 Q175 60 180 70 Q185 80 190 70" 
        fill="#006400" 
        stroke="#006400" 
        stroke-width="2"/>
  <path d="M230 90 Q235 80 240 90 Q245 100 250 90" 
        fill="#006400" 
        stroke="#006400" 
        stroke-width="2"/>
  
  <text x="200" y="190" 
        font-family="'Times New Roman', serif" 
        font-size="28" 
        font-weight="bold" 
        text-anchor="middle" 
        fill="#1E3F20">
    Lo Scugnizzo Napoletano
  </text>
  
  <text x="200" y="170" 
        font-family="'Times New Roman', serif" 
        font-size="16" 
        font-style="italic"
        text-anchor="middle" 
        fill="#1E3F20">
    Pizzeria Autentica
  </text>
</svg>